<?xml version="1.0" encoding="UTF-8" standalone="no"?>
<!-- Created with Inkscape (http://www.inkscape.org/) -->

<svg
   xmlns:dc="http://purl.org/dc/elements/1.1/"
   xmlns:cc="http://creativecommons.org/ns#"
   xmlns:rdf="http://www.w3.org/1999/02/22-rdf-syntax-ns#"
   xmlns:svg="http://www.w3.org/2000/svg"
   xmlns="http://www.w3.org/2000/svg"
   xmlns:sodipodi="http://sodipodi.sourceforge.net/DTD/sodipodi-0.dtd"
   xmlns:inkscape="http://www.inkscape.org/namespaces/inkscape"
   width="210mm"
   height="297mm"
   viewBox="0 0 210 297"
   version="1.1"
   id="svg8"
   inkscape:version="0.92.1 r15371"
   sodipodi:docname="favion.svg">
  <defs
     id="defs2" />
  <sodipodi:namedview
     id="base"
     pagecolor="#ffffff"
     bordercolor="#666666"
     borderopacity="1.0"
     inkscape:pageopacity="0.0"
     inkscape:pageshadow="2"
     inkscape:zoom="0.7"
     inkscape:cx="411.14641"
     inkscape:cy="601.84663"
     inkscape:document-units="mm"
     inkscape:current-layer="layer1"
     showgrid="false"
     inkscape:snap-text-baseline="true"
     inkscape:window-width="1366"
     inkscape:window-height="706"
     inkscape:window-x="-8"
     inkscape:window-y="-8"
     inkscape:window-maximized="1" />
  <metadata
     id="metadata5">
    <rdf:RDF>
      <cc:Work
         rdf:about="">
        <dc:format>image/svg+xml</dc:format>
        <dc:type
           rdf:resource="http://purl.org/dc/dcmitype/StillImage" />
        <dc:title></dc:title>
      </cc:Work>
    </rdf:RDF>
  </metadata>
  <g
     inkscape:label="Layer 1"
     inkscape:groupmode="layer"
     id="layer1">
    <text
       xml:space="preserve"
       style="font-style:normal;font-weight:normal;font-size:10.58333302px;line-height:1.25;font-family:sans-serif;letter-spacing:0px;word-spacing:0px;fill:#000000;fill-opacity:1;stroke:none;stroke-width:0.26458332"
       x="92.98214"
       y="122.375"
       id="text3692"><tspan
         sodipodi:role="line"
         id="tspan3690"
         x="92.98214"
         y="132.0305"
         style="stroke-width:0.26458332"></tspan></text>
    <g
       id="g4532"
       inkscape:export-xdpi="96"
       inkscape:export-ydpi="96">
      <path
         id="rect3688"
         d="M 60.244049,89.15625 H 143.5878 V 172.5 H 60.244049 Z"
         style="stroke-width:0.42585531;fill:#1d1f21;fill-opacity:1" />
      <g
         transform="matrix(2.9387417,0,0,3.1232763,-189.25684,-266.20649)"
         id="text3696"
         style="font-style:normal;font-weight:normal;font-size:10.58333302px;line-height:1.25;font-family:sans-serif;letter-spacing:0px;word-spacing:0px;fill:#000000;fill-opacity:1;stroke:none;stroke-width:0.26458332"
         aria-label="s">
        <path
           id="path3698"
           transform="matrix(0.09003286,0,0,0.08471339,64.400638,85.23309)"
           d="M 439.80859 371.17969 C 420.15577 371.17969 402.33878 373.91318 386.35938 379.37891 C 370.56364 384.64946 357.52193 391.87225 347.23633 401.04688 C 336.58339 410.41666 328.59404 421.05537 323.26758 432.96289 C 318.12477 444.87041 315.55469 457.55824 315.55469 471.02734 C 315.55469 492.4999 321.15542 510.65472 332.35938 525.49023 C 343.747 540.13058 362.94172 551.2561 389.94141 558.86914 C 399.67598 561.60196 410.42081 564.13994 422.17578 566.48242 C 434.11446 568.82483 443.75672 570.87395 451.10352 572.63086 C 470.94005 577.31575 484.3486 582.97631 491.32812 589.61328 C 498.30765 596.25025 501.79688 606.01101 501.79688 618.89453 C 501.79688 633.16943 497.13027 644.18641 487.83398 651.96875 L 542.69336 651.96875 L 542.69336 564.57422 C 540.47504 560.99199 537.96718 557.61616 535.13281 554.47656 C 522.09217 540.22655 503.54139 530.1745 479.48047 524.31836 C 471.58254 522.36637 461.66517 520.21944 449.72656 517.87695 C 437.9716 515.53447 427.31846 513.19202 417.76758 510.84961 C 400.50245 506.55505 388.01303 500.99034 380.29883 494.1582 C 372.40096 487.32607 368.45117 477.17621 368.45117 463.70703 C 368.45117 448.4811 374.97105 437.06226 388.01172 429.44922 C 401.05236 421.64109 417.03297 417.73633 435.95117 417.73633 C 454.13461 417.73633 472.68539 421.34776 491.60352 428.57031 C 510.52172 435.59769 526.59212 444.28499 539.81641 454.63086 L 542.57227 454.63086 L 542.57227 395.77539 C 530.0826 388.94318 514.37907 383.18489 495.46094 378.5 C 476.72645 373.61986 458.17574 371.17969 439.80859 371.17969 z M 314.17578 624.75195 L 314.17578 651.96875 L 361.66992 651.96875 C 345.48114 644.72694 330.56521 635.65988 316.93164 624.75195 L 314.17578 624.75195 z "
           style="font-size:50.79999924px;fill:#2bbc4f;stroke-width:3.0296042;fill-opacity:0.94117647" />
      </g>
    </g>
  </g>
</svg>
